<?xml version="1.0" encoding="utf-8"?>
<!-- Generator: Adobe Illustrator 23.0.1, SVG Export Plug-In . SVG Version: 6.00 Build 0)  -->
<svg version="1.1" id="Layer_1" xmlns="http://www.w3.org/2000/svg" xmlns:xlink="http://www.w3.org/1999/xlink" x="0px" y="0px"
	 viewBox="0 0 277.3 342.1" style="enable-background:new 0 0 277.3 342.1;" xml:space="preserve">
<style type="text/css">
	.st0{fill:none;stroke:#073256;stroke-width:12;stroke-miterlimit:10;}
	.st1{fill:none;stroke:#073256;stroke-width:8;stroke-miterlimit:10;}
</style>
<title>Design</title>
<g id="f8ff75d8-b440-4baa-9747-b7b37e6cf27a">
	<g id="be25e01b-17f5-47f3-8e74-bc5b1a0336e2">
		<path class="st0" d="M209.4,6H27.2C15.5,6,6,15.5,6,27.2v287.7c0,11.7,9.5,21.2,21.2,21.2c0,0,0,0,0,0h222.9
			c11.7,0,21.2-9.5,21.2-21.2l0,0v-247c0-5.6-2.2-11-6.2-15l-40.7-40.7C220.4,8.2,215,6,209.4,6z"/>
		
			<rect x="115.4" y="109.8" transform="matrix(0.7071 -0.7071 0.7071 0.7071 -103.1955 154.2507)" class="st1" width="38.3" height="183.8"/>
		<line class="st1" x1="83.9" y1="151" x2="97.5" y2="137.5"/>
		<line class="st1" x1="95.2" y1="162.3" x2="108.7" y2="148.7"/>
		<line class="st1" x1="106.4" y1="173.5" x2="120" y2="160"/>
		<line class="st1" x1="117.7" y1="184.8" x2="131.3" y2="171.2"/>
		<line class="st1" x1="129" y1="196.1" x2="142.5" y2="182.5"/>
		<line class="st1" x1="140.2" y1="207.3" x2="153.8" y2="193.8"/>
		<line class="st1" x1="151.5" y1="218.6" x2="165" y2="205"/>
		<line class="st1" x1="162.8" y1="229.8" x2="176.3" y2="216.3"/>
		<line class="st1" x1="174" y1="241.1" x2="187.6" y2="227.5"/>
		<line class="st1" x1="185.3" y1="252.4" x2="198.8" y2="238.8"/>
		<polyline class="st1" points="168.4,188.6 210.9,146.2 190.1,125.4 147.6,167.9 		"/>
		<path class="st1" d="M100.3,215.2l-33,33c-0.1,0.1-0.2,0.2-0.2,0.4l-10.3,29.6c-0.2,0.5,0,1.1,0.6,1.3c0.2,0.1,0.5,0.1,0.7,0
			l29.6-10.3c0.1-0.1,0.3-0.1,0.4-0.2l33-33"/>
		<line class="st1" x1="67.1" y1="248.4" x2="87.9" y2="269.1"/>
	</g>
</g>
</svg>
