<svg xmlns="http://www.w3.org/2000/svg" viewBox="0 0 517.03 110.62"><title>logo-full</title><g id="d2f10ae8-d938-4769-96ed-ef14b6a57abc" data-name="Layer 2"><g id="f4e224d1-9b2e-436f-93da-1d5fd0720879" data-name="Layer 1"><path d="M98.3,34h15.34c8.92,0,16.13,2.23,16.13,10.62,0,3.67-2.1,7.87-5.38,9.18v.26c4.07,1.18,7.34,4.33,7.34,10,0,8.79-7.61,12.59-16.79,12.59H98.3Zm15.08,16.65c3.67,0,5.38-1.71,5.38-4.33s-1.7-3.67-5.38-3.67h-3.8v8ZM114.17,68c4.46,0,6.56-1.57,6.56-4.72s-2.1-4.33-6.56-4.33h-4.59v9Z" style="fill:#3c557c"/><path d="M138.17,56V34h11.28V57.34c0,7.61,2,10.36,6.43,10.36s6.56-2.75,6.56-10.36V34h10.88V56c0,14.56-5.51,21.38-17.44,21.38S138.17,70.59,138.17,56Z" style="fill:#3c557c"/><path d="M182.49,34h11.28V76.62H182.49Z" style="fill:#3c557c"/><path d="M203.21,34h11.28V67.18h16.13v9.44H203.21Z" style="fill:#3c557c"/><path d="M238,34h12.59c13,0,21.9,6,21.9,21.11s-8.92,21.51-21.24,21.51H238ZM249.9,67.57c6.16,0,11-2.49,11-12.46S256.06,43,249.9,43h-.66V67.57Z" style="fill:#3c557c"/><path d="M278.22,55.11c0-14,8-21.9,19.8-21.9s19.8,7.93,19.8,21.9-8,22.29-19.8,22.29S278.22,69.15,278.22,55.11Zm28.06,0c0-7.74-3.15-12.2-8.26-12.2s-8.26,4.46-8.26,12.2S292.91,67.7,298,67.7,306.29,62.85,306.29,55.11Z" style="fill:#3c557c"/><path d="M325.43,34H337l9.44,19,4.07,9.57h.26a153.08,153.08,0,0,1-1.44-16.26V34h10.75V76.62H348.52l-9.44-19.08L335,48h-.26c.52,4.85,1.44,11,1.44,16.26V76.62H325.43Z" style="fill:#3c557c"/><path d="M377.1,34h13.64l13,42.62H391.79l-2.1-9H377.76l-2.1,9H364.12Zm2.69,24.85h7.87l-.72-3c-1-4.07-2.1-9.25-3.15-13.51h-.26c-.92,4.33-2,9.44-3,13.51Z" style="fill:#3c557c"/><path d="M406.87,56V34h11.28V57.34c0,7.61,2,10.36,6.43,10.36s6.56-2.75,6.56-10.36V34H442V56c0,14.56-5.51,21.38-17.44,21.38S406.87,70.59,406.87,56Z" style="fill:#3c557c"/><path d="M459.33,43.44H448V34h33.83v9.44H470.61V76.62H459.33Z" style="fill:#3c557c"/><path d="M484.25,71.31l6.43-7.74c3,2.43,6.82,4.13,10,4.13,3.41,0,4.85-1.11,4.85-3s-2.16-2.69-5.77-4.13l-5.31-2.23c-4.59-1.84-8.59-5.71-8.59-11.87,0-7.28,6.56-13.24,15.87-13.24a20.49,20.49,0,0,1,14.16,5.7L510.21,46c-2.89-2-5.38-3.08-8.52-3.08-2.75,0-4.46,1-4.46,2.89s2.43,2.75,6.29,4.26l5.18,2C514,54.2,517,57.87,517,63.77c0,7.21-6,13.64-16.65,13.64A24.68,24.68,0,0,1,484.25,71.31Z" style="fill:#3c557c"/><path d="M98.3,93.92h4.39c5,0,8,2.71,8,8.12s-3,8.27-7.82,8.27H98.3Zm4.19,14c3.31,0,5.19-1.88,5.19-5.92s-1.88-5.77-5.19-5.77h-1.28V108Z" style="fill:#3c557c"/><path d="M114.6,93.92h2.91v16.4H114.6Z" style="fill:#3c557c"/><path d="M121.45,102.17c0-5.37,3.38-8.55,7.75-8.55a6.75,6.75,0,0,1,5,2.08l-1.55,1.88a4.44,4.44,0,0,0-3.31-1.43c-2.91,0-4.86,2.26-4.86,5.94s1.73,6,5,6a3.62,3.62,0,0,0,2.36-.73v-3.54h-3.11v-2.38h5.72v7.22a7.52,7.52,0,0,1-5.24,2C124.73,110.62,121.45,107.61,121.45,102.17Z" style="fill:#3c557c"/><path d="M138.67,93.92h2.91v16.4h-2.91Z" style="fill:#3c557c"/><path d="M149.68,96.38h-4.74V93.92h12.39v2.46h-4.74v13.94h-2.91Z" style="fill:#3c557c"/><path d="M162.89,93.92h3.41l5.34,16.4h-3.06l-1.28-4.44h-5.52l-1.28,4.44h-3Zm-.43,9.68h4.19l-.58-2c-.53-1.73-1-3.61-1.48-5.42h-.1c-.45,1.83-.93,3.69-1.45,5.42Z" style="fill:#3c557c"/><path d="M174.3,93.92h2.91v13.94H184v2.46H174.3Z" style="fill:#3c557c"/><path d="M193.16,93.92h5.24c3.38,0,5.87,1,5.87,4a3.69,3.69,0,0,1-2.28,3.56v.1a3.75,3.75,0,0,1,3.13,3.89c0,3.28-2.68,4.81-6.29,4.81h-5.67Zm5,6.77c2.28,0,3.26-.9,3.26-2.31,0-1.6-1.08-2.21-3.21-2.21h-2.13v4.51Zm.38,7.37c2.41,0,3.76-.88,3.76-2.71s-1.3-2.48-3.76-2.48h-2.46v5.19Z" style="fill:#3c557c"/><path d="M208.68,103.12v-9.2h2.91v9.43c0,3.56,1.33,4.74,3.31,4.74s3.41-1.18,3.41-4.74V93.92h2.78v9.2c0,5.39-2.38,7.5-6.19,7.5S208.68,108.51,208.68,103.12Z" style="fill:#3c557c"/><path d="M224.43,108.21l1.71-2a6.52,6.52,0,0,0,4.26,1.85c1.86,0,2.86-.83,2.86-2.11s-1.05-1.78-2.53-2.41l-2.26-1c-1.6-.68-3.31-2-3.31-4.36,0-2.61,2.31-4.61,5.52-4.61a7.24,7.24,0,0,1,5,2.08l-1.48,1.86a5.35,5.35,0,0,0-3.56-1.4c-1.55,0-2.58.73-2.58,1.93s1.25,1.76,2.61,2.31l2.23.93c1.93.83,3.31,2.06,3.31,4.44,0,2.66-2.21,4.86-5.89,4.86A8.49,8.49,0,0,1,224.43,108.21Z" style="fill:#3c557c"/><path d="M239.85,93.92h2.91v16.4h-2.91Z" style="fill:#3c557c"/><path d="M247.55,93.92h3l5.11,9.23,1.68,3.49h.1c-.13-1.68-.38-3.76-.38-5.59V93.92h2.78v16.4h-3l-5.12-9.23-1.68-3.49H250c.13,1.73.38,3.71.38,5.54v7.17h-2.78Z" style="fill:#3c557c"/><path d="M264.62,93.92h9.88v2.46h-7v4.19h5.89V103h-5.89v4.84h7.22v2.46H264.62Z" style="fill:#3c557c"/><path d="M277.61,108.21l1.71-2a6.52,6.52,0,0,0,4.26,1.85c1.86,0,2.86-.83,2.86-2.11s-1.05-1.78-2.53-2.41l-2.26-1c-1.6-.68-3.31-2-3.31-4.36,0-2.61,2.31-4.61,5.52-4.61a7.24,7.24,0,0,1,5,2.08l-1.48,1.86a5.34,5.34,0,0,0-3.56-1.4c-1.56,0-2.58.73-2.58,1.93s1.25,1.76,2.61,2.31l2.23.93c1.93.83,3.31,2.06,3.31,4.44,0,2.66-2.21,4.86-5.89,4.86A8.5,8.5,0,0,1,277.61,108.21Z" style="fill:#3c557c"/><path d="M291.51,108.21l1.71-2a6.52,6.52,0,0,0,4.26,1.85c1.86,0,2.86-.83,2.86-2.11s-1.05-1.78-2.53-2.41l-2.26-1c-1.6-.68-3.31-2-3.31-4.36,0-2.61,2.31-4.61,5.52-4.61a7.24,7.24,0,0,1,5,2.08l-1.48,1.86a5.34,5.34,0,0,0-3.56-1.4c-1.56,0-2.58.73-2.58,1.93s1.25,1.76,2.61,2.31l2.23.93c1.93.83,3.31,2.06,3.31,4.44,0,2.66-2.21,4.86-5.89,4.86A8.5,8.5,0,0,1,291.51,108.21Z" style="fill:#3c557c"/><path d="M312.57,93.92h5.16c3.64,0,6.34,1.25,6.34,5.06,0,3.64-2.71,5.32-6.24,5.32h-2.36v6h-2.91Zm5,8c2.43,0,3.61-1,3.61-3s-1.28-2.73-3.71-2.73h-2V102Z" style="fill:#3c557c"/><path d="M327.79,93.92h2.91v16.4h-2.91Z" style="fill:#3c557c"/><path d="M334.63,102c0-5.29,3-8.42,7.22-8.42s7.25,3.13,7.25,8.42-3,8.58-7.25,8.58S334.63,107.36,334.63,102Zm11.46,0c0-3.66-1.65-5.89-4.24-5.89s-4.24,2.23-4.24,5.89,1.65,6,4.24,6S346.09,105.73,346.09,102Z" style="fill:#3c557c"/><path d="M353,93.92h3l5.12,9.23,1.68,3.49h.1c-.13-1.68-.38-3.76-.38-5.59V93.92h2.78v16.4h-3l-5.12-9.23-1.68-3.49h-.1c.13,1.73.38,3.71.38,5.54v7.17H353Z" style="fill:#3c557c"/><path d="M370.09,93.92H380v2.46h-7v4.19h5.89V103H373v4.84h7.22v2.46H370.09Z" style="fill:#3c557c"/><path d="M384.21,93.92h9.88v2.46h-7v4.19H393V103h-5.89v4.84h7.22v2.46H384.21Z" style="fill:#3c557c"/><path d="M398.33,93.92h5.54c3.41,0,6,1.2,6,4.86a4.59,4.59,0,0,1-3.26,4.69l3.91,6.85h-3.26l-3.54-6.42h-2.51v6.42h-2.91Zm5.24,7.67c2.23,0,3.46-1,3.46-2.81s-1.23-2.53-3.46-2.53h-2.33v5.34Z" style="fill:#3c557c"/><path d="M412.32,108.21l1.71-2a6.52,6.52,0,0,0,4.26,1.85c1.86,0,2.86-.83,2.86-2.11s-1.05-1.78-2.53-2.41l-2.26-1c-1.6-.68-3.31-2-3.31-4.36,0-2.61,2.31-4.61,5.52-4.61a7.24,7.24,0,0,1,5,2.08l-1.48,1.86a5.34,5.34,0,0,0-3.56-1.4c-1.56,0-2.58.73-2.58,1.93s1.25,1.76,2.61,2.31l2.23.93c1.93.83,3.31,2.06,3.31,4.44,0,2.66-2.21,4.86-5.89,4.86A8.5,8.5,0,0,1,412.32,108.21Z" style="fill:#3c557c"/><path d="M40.56,110.62c22.34,0,40.56-1.08,40.56-2.42s-18.22-2.42-40.56-2.42S0,106.88,0,108.21,18.22,110.62,40.56,110.62Z" style="fill:#abbed4;fill-rule:evenodd"/><path d="M35.17,60.06c.54.73,2.54.31,4.75-1a15.79,15.79,0,0,1-4.53-.71C35,59.12,34.91,59.71,35.17,60.06Z" style="fill:#fff"/><path d="M45.08,54.28c.38-.72.45-1.3.2-1.64-.55-.75-2.61-.3-4.89,1h0A17.09,17.09,0,0,1,45.08,54.28Z" style="fill:#fff"/><path d="M35.68,57a17.82,17.82,0,0,1,3-2.76l0,0c-2.27.25-3.93,1-3.93,1.81C34.82,56.39,35.12,56.74,35.68,57Z" style="fill:#fff"/><ellipse cx="50.52" cy="8.8" rx="1.82" ry="3.63" transform="translate(13.19 43.97) rotate(-53.17)" style="fill:#fff"/><path d="M64.36,34.12A12.93,12.93,0,0,0,64,15.83,25.48,25.48,0,0,1,64.36,34.12Z" style="fill:#fff"/><polygon points="16.8 106.38 16.8 106.38 16.8 106.38 16.8 106.38" style="fill:#fff"/><polygon points="15.76 100.01 15.76 100 15.76 100.01 15.76 100.01" style="fill:#fff"/><path d="M16.74,24.74c0,5.33,1.72,7,4.67,7h0a10.27,10.27,0,0,0,1.91-.21c1.91,4.13,4.21,8.47,7.86,11.07l.07-.11h0a10.64,10.64,0,0,1,9.26-4.59A12.17,12.17,0,0,1,51,44.68l0,.06a24.21,24.21,0,0,0,8.51-4.12l.25-.3c12.4-16.07.82-39.27-19.31-39.27A23.41,23.41,0,0,0,25.52,6.17l-.2.14c-.6.48-1.14,1-1.66,1.46l-.06.07A23.84,23.84,0,0,0,16.74,24.74ZM40.43,1.81A22.91,22.91,0,0,1,63.34,24.72C63.34,37.37,53.08,27,40.43,27S17.52,37.37,17.52,24.72A22.91,22.91,0,0,1,40.43,1.81Z" style="fill:#fff"/><path d="M9.88,52.82h0Z" style="fill:#fff"/><path d="M27.08,61.34h0Z" style="fill:#fff"/><path d="M71.58,53h0a21.24,21.24,0,0,0-2.86-1.3,60,60,0,0,0-17.79-3.54l-.05-.1h0c-1.22-2.31-3.8-5.39-9.41-6.49a10.2,10.2,0,0,1,8.21,3.37l0-.05a10.71,10.71,0,0,0-9.14-5.69,9.54,9.54,0,0,0-5.28,1.63l0,0-.07.05L35,41c-1.31,1.08-2,2-.91,1.57.46-.16.85-.29,1.22-.39a11.21,11.21,0,0,1,3.75-.59,14.64,14.64,0,0,0-2.46.73l.05,0-.48.2c-4.3,2.35-3.21,5.29-.75,5.46,0,0,0,0,0,0l-5.19.19h0l-1.15.07c-2.77.2-12.37,1.1-19.23,4.6-1.64,1.82-.94,3.82-.18,5.29,1,1.89,2.82,3.47,4.64,5.06,2-2.05,4.55-2.69,7.55-2.49a9.88,9.88,0,0,0-6.25,3.65l.38.36a18.81,18.81,0,0,1,1.92,2.11l.23.31h0a5.23,5.23,0,0,1,1.07,2.4c.15,1.69-.73,3.62-1.8,3.51h-.08c2.15,1.55,5.54,1.64,7.43-.71,2.38-2.95,2.61-8.09,1.27-9.5A25.28,25.28,0,0,0,20.76,59L20,58.54a26.92,26.92,0,0,0-6.53-3.3,3.39,3.39,0,0,1,.47.06l1.32.29.35.1c4.87,1,9.51.92,12.63-.61h0c0,.62-.1,1.38-.14,1.92,0,0,0,0,0,0-.45,5.37-.49,5.41-.24,5.89a7.29,7.29,0,0,1,.55,2.24c0,.09,0,.19,0,.28a23.45,23.45,0,0,1,.33,6.5,37.49,37.49,0,0,1,17.53,0c-6.27-.5-13.63-.23-17.69,1.63-1,8.15-4.86,16.37-6,19.54l-.14.55,0,.12h0a10.23,10.23,0,0,1,10.39,3.64c-3.75-2.43-7.16-3.19-10.86-2.17a5,5,0,0,0-.89.37l-.15.09c-4.75,4-5.08,9.77,3.65,10.78h0l.37,0c4.7,0,7.47,0,9.15-.13h0a6.41,6.41,0,0,0,2-.26,1.46,1.46,0,0,0,.87-.58,2.05,2.05,0,0,0,.4-1,12,12,0,0,0,.15-2.25v-.09c0-1.58,0-4,0-7.81L35.41,81.82h0a33,33,0,0,1-3.15-1.93c7.12,2.59,10.5,3.46,17.66,1.84a22.12,22.12,0,0,1-3.22,1.36c-2.05,3.24-2.59,14.24-.59,20.23a4.11,4.11,0,0,0,3.35,3.07l12,.11c6.95-.56,3.79-8.51-1.73-11.18l-.11,0c-3.71-1-7.37-.33-11.12,2.1a10.24,10.24,0,0,1,10.42-3.63c-2.28-8.66-3.19-13-4-17.33h0c-.3-1.64-.54-3.11-.69-4.33h0c-1.47-3.54-1.93-6.46-.65-9.64-.19-3-.3-4-.41-5.38h0c0-.56-.1-1.34-.14-2h0c3.17,1.6,7.87,1.62,12.81.61l.5-.14a9.11,9.11,0,0,1,1.28-.31,32.61,32.61,0,0,0-6.34,3.3l-1,.56-.63.37c-4.91,4-4.3,7.66-2.94,11.34a5.27,5.27,0,0,0,1.94,2.84l.36.09a6.29,6.29,0,0,0,6.5-2.64,3.45,3.45,0,0,0,.29-2.36,9.36,9.36,0,0,0-1.15,2.1h0a6.41,6.41,0,0,1,1.05-3.89c.08-.23,7.92-8,8-12C73.53,54,72.81,53.64,71.58,53ZM13.81,55.27h0ZM36.56,42.33l.06,0-.11,0Zm4.72,16.75a11.41,11.41,0,0,1-5.58,2.26,1.59,1.59,0,0,1-1.35-.52c-.41-.57-.24-1.5.48-2.65-1.15-.49-1.79-1.11-1.79-1.78,0-1.39,2.72-2.52,6.47-2.68,3.09-2,5.92-2.72,6.73-1.61.39.53.26,1.4-.37,2.46,1.24.49,1.92,1.14,1.92,1.83C47.81,57.8,45.07,58.92,41.28,59.08Zm9.56,47.32h0Zm15-41.4c-1.17-2.31-3.8-3.7-6.64-4.3,3.19-.21,5.88.5,7.94,2.88Z" style="fill:#fff"/><path d="M45.45,55.23a15,15,0,0,1-2.38,2.5c1.8-.33,3-1,3-1.67A1.13,1.13,0,0,0,45.45,55.23Z" style="fill:#fff"/><path d="M44.73,54.86a11.91,11.91,0,0,0-4.31-.7l-.81,0-.65.45a15.29,15.29,0,0,0-2.82,2.63,12,12,0,0,0,4.28.69c.43,0,.86,0,1.28-.05A13.58,13.58,0,0,0,44.73,54.86Z" style="fill:#fff"/><path d="M36.56,42.33l-.05,0,.11,0Z" style="fill:#b0c2db"/><path d="M25.3,106.44h0Z" style="fill:#b0c2db"/><path d="M50.84,106.4h0Z" style="fill:#b0c2db"/><path d="M62.5,25.33c-.36-11.8-9.66-22.8-22.16-22.61A22,22,0,0,0,24.5,9.34,39.38,39.38,0,0,1,29.44,9C42.82,9,55.44,15.08,62.5,25.33ZM47.62,6.62c.6-.8,2.39-.48,4,.72S54,10.17,53.43,11s-2.39.48-4-.72S47,7.43,47.62,6.62Z" style="fill:#b0c2db"/><path d="M51.47,45.84A12.12,12.12,0,0,1,51.85,47a24.47,24.47,0,0,0,7.64-6.37A24.21,24.21,0,0,1,51,44.74C51.18,45.15,51.37,45.59,51.47,45.84Z" style="fill:#b0c2db"/><path d="M23.75,43.22a24.82,24.82,0,0,0,5.39,3.84,14.33,14.33,0,0,1,2-4.47c-3.66-2.6-6-6.95-7.86-11.07a10.27,10.27,0,0,1-1.91.21h0c-2.95,0-4.67-1.66-4.67-7A23.84,23.84,0,0,1,23.6,7.83l.06-.07a24.53,24.53,0,0,0-2.8,3.15A24.3,24.3,0,0,0,18.49,36,24.56,24.56,0,0,0,23.75,43.22Z" style="fill:#b0c2db"/><path d="M22.85,47.62A7.06,7.06,0,0,1,21.48,45a6.88,6.88,0,0,1-.18-2.79q-.76-.87-1.45-1.81a8.67,8.67,0,0,0,1,7.57Q21.83,47.79,22.85,47.62Z" style="fill:#b0c2db"/><path d="M15.3,29.44c0-.09,0-.19,0-.28A25.7,25.7,0,0,1,15,25.69a25.39,25.39,0,0,1,.16-3c0-.15,0-.3,0-.45a25.46,25.46,0,0,1,1.5-6,12.64,12.64,0,0,0-3.51,9.6,13.67,13.67,0,0,0,2.54,6.92q.3.42.63.82-.17-.51-.33-1A25.52,25.52,0,0,1,15.3,29.44Z" style="fill:#b0c2db"/><path d="M13.81,55.27h0Z" style="fill:#b0c2db"/><path d="M59.24,60.69c2.84.6,5.47,2,6.64,4.3l1.3-1.42C65.11,61.19,62.43,60.48,59.24,60.69Z" style="fill:#b0c2db"/><path d="M35,41a11.53,11.53,0,0,0-3.27,3.52l0,0c.14-.15.29-.28.43-.41h0l.06-.06h0a8.85,8.85,0,0,1,2.59-1.66l.43-.15c-.37.1-.76.23-1.22.39C33,42.94,33.71,42.06,35,41Z" style="fill:#b0c2db"/><path d="M35.45,47.95c-2.46-.18-3.55-3.12.75-5.46a11.94,11.94,0,0,0-2.34,1.33,11.47,11.47,0,0,0-3.6,4.33L35.44,48S35.45,47.95,35.45,47.95Z" style="fill:#b0c2db"/><path d="M46.28,71.91a37.49,37.49,0,0,0-17.53,0,23.45,23.45,0,0,0-.33-6.5A15,15,0,0,1,27,72.21c-.15,1.16-.4,2.78-.62,4.08h0l0,.13,0,.2v0h0c-.91,4.83-2.34,11-3.75,16.41,1.19-3.17,5-11.39,6-19.54C32.65,71.68,40,71.41,46.28,71.91Z" style="fill:#b0c2db"/><path d="M46.09,103.32c-2-6-1.46-17,.59-20.23l-.17.06a12.89,12.89,0,0,1-1.75.44,10,10,0,0,1-1,.15V96.11c0,2.87,0,4.79,0,6.12v0c0,.2,0,.4,0,.58h0a10.87,10.87,0,0,0,.11,1.45,2.34,2.34,0,0,0,.44,1.21,1.55,1.55,0,0,0,1,.62,5.65,5.65,0,0,0,1.27.19h0l.56,0,2.28,0A4.11,4.11,0,0,1,46.09,103.32Z" style="fill:#b0c2db"/><path d="M37.47,82.79c-.31-.13-.63-.27-1-.42s-.75-.36-1.1-.55l2.08,12.54C37.48,91.42,37.47,87.65,37.47,82.79Z" style="fill:#b0c2db"/><path d="M24.53,106.45c-8.73-1-8.4-6.77-3.65-10.78a9.52,9.52,0,0,0-1.25.84l-.13.1-.08.07a10,10,0,0,0-3.08,4.12,5.35,5.35,0,0,0-.34,3.42v0a3.15,3.15,0,0,0,.12.33l.1.23,0,.05a2.73,2.73,0,0,0,.16.27,3.54,3.54,0,0,0,2.75,1.33l.59,0h5.15l-.37,0Z" style="fill:#b0c2db"/><path d="M52.88,55.08h0c0,.63.1,1.42.14,2h0s0,0,0,0,0-.11.28-.13c.55,0,2.19,0,7,0h1.49c.72-.24,2.52-.79,3.9-1.19C60.75,56.7,56,56.67,52.88,55.08Z" style="fill:#b0c2db"/><path d="M9.86,52.83l-.06,0,.06,0Z" style="fill:#b0c2db"/><path d="M19.24,69.52a2.26,2.26,0,0,0-.11-.52,7.54,7.54,0,0,0-1-1.87h0l-.23-.31A18.81,18.81,0,0,0,16,64.7l-.38-.36a9.88,9.88,0,0,1,6.25-3.65c-3-.2-5.54.44-7.55,2.49-1.82-1.59-3.66-3.17-4.64-5.06-.76-1.47-1.46-3.48.18-5.29L9.59,53a7.24,7.24,0,0,0-1.44,1l-.07.07-.21.24-.06.09a1.46,1.46,0,0,0-.14.25l0,.06A.84.84,0,0,0,7.6,55c0,1.65,2.26,5.18,3.24,6.5,1.48,2,4.67,5.35,4.71,5.48a6.39,6.39,0,0,1,1.05,3.89,9.36,9.36,0,0,0-1.15-2.1A4.39,4.39,0,0,0,17.36,73h.08C18.52,73.14,19.39,71.21,19.24,69.52Z" style="fill:#b0c2db"/><path d="M19.24,69.52a5.23,5.23,0,0,0-1.07-2.4,7.54,7.54,0,0,1,1,1.87A2.26,2.26,0,0,1,19.24,69.52Z" style="fill:#b0c2db"/><path d="M28.24,55.08c-3.13,1.53-7.76,1.57-12.63.61,1,.26,1.91.54,2.79.85l.94.33c4.61,0,6.8,0,7.84,0a3,3,0,0,1,.88.05.07.07,0,0,1,0,.05.18.18,0,0,1,0,0c0-.54.1-1.3.14-1.92Z" style="fill:#b0c2db"/><path d="M28.09,57v0a.07.07,0,0,0,0-.05S28.09,57,28.09,57Z" style="fill:#b0c2db"/><path d="M19.34,56.87c4.66,0,6.82,0,7.84,0C26.14,56.86,24,56.9,19.34,56.87Z" style="fill:#b0c2db"/><path d="M56.58,70.8c-1.35-3.68-2-7.34,2.94-11.34a25.18,25.18,0,0,0-4.3,3.19A2.94,2.94,0,0,0,54.44,64c-.72,2.31.25,6.07,1.38,7.86a3.89,3.89,0,0,0,1,1,4.93,4.93,0,0,0,1.69.77A5.27,5.27,0,0,1,56.58,70.8Z" style="fill:#b0c2db"/><path d="M72.21,51.81A55.27,55.27,0,0,0,53.61,47.2a25.34,25.34,0,0,0,9.7-10.62c6.94-5.38,8.37-16.62-.6-23.42A25.45,25.45,0,0,0,18,13.52c-8.35,6.78-7,17.31-.58,22.7a25.55,25.55,0,0,0,1.78,3.18,9.66,9.66,0,0,0,.62,8.83c-2.06.47-3.94,1-5.51,1.54a49.82,49.82,0,0,0-5.36,2.05C6.56,53,5.52,53.59,6.59,56.6a23.07,23.07,0,0,0,3,5.4,41,41,0,0,0,4.14,4.89h0c.93.83.32,2.15.53,3.47.42,2.64,3.17,5.79,8,4.92h0a5.78,5.78,0,0,0,2.83-1.15c-.93,6-1.87,9-4.22,20C16,96.71,13,102.56,15.33,105.91c1.71,2.42,4.71,1.92,9.17,1.88,8.7-.35,11.92.63,13.49-1.46,1.24-1.65.7-3.16.88-23.05a12.59,12.59,0,0,0,3.54.54c.13,19.18-.43,20.84.82,22.51s2.17,1.5,18.23,1.5c7.8,0,6.39-9.68-1.13-13.74C58,85.42,57.11,80.62,56.27,76.35h0c-.13-.83-.23-1.58-.3-2.24a6,6,0,0,0,2.86,1.17h0c4.87.87,7.62-2.29,8-4.92.21-1.31-.4-2.63.53-3.47h0A41.06,41.06,0,0,0,71.55,62a23.07,23.07,0,0,0,3-5.4C75.6,53.59,74.56,53,72.21,51.81ZM64.36,34.12A25.48,25.48,0,0,0,64,15.83,12.93,12.93,0,0,1,64.36,34.12ZM15.71,32.82a13.67,13.67,0,0,1-2.54-6.92,12.64,12.64,0,0,1,3.51-9.6,25.46,25.46,0,0,0-1.5,6c0,.15,0,.3,0,.45a25.39,25.39,0,0,0-.16,3,25.7,25.7,0,0,0,.28,3.47c0,.09,0,.19,0,.28A25.52,25.52,0,0,0,16,32.6q.15.52.33,1Q16,33.24,15.71,32.82ZM18.49,36a24.23,24.23,0,0,1,2.37-25.13,24.53,24.53,0,0,1,2.8-3.15c.52-.49,1.06-1,1.66-1.46l.2-.14A23.41,23.41,0,0,1,40.43,1.05c20.13,0,31.71,23.2,19.31,39.27l-.25.3A24.47,24.47,0,0,1,51.85,47a12.12,12.12,0,0,0-.38-1.15c-.1-.25-.28-.7-.48-1.1l0-.06a12.17,12.17,0,0,0-10.45-6.79,10.64,10.64,0,0,0-9.26,4.59h0l-.07.11a14.33,14.33,0,0,0-2,4.47,24.82,24.82,0,0,1-5.39-3.84A24.56,24.56,0,0,1,18.49,36ZM27.1,47.11c-1,.07-2,.18-3,.32a5.75,5.75,0,0,1-1.81-4.16A25.2,25.2,0,0,0,27.1,47.11Zm-7.65-3a8.63,8.63,0,0,1,.41-3.68q.68.94,1.45,1.81A6.88,6.88,0,0,0,21.48,45a7.06,7.06,0,0,0,1.37,2.61q-1,.17-2,.37A8.58,8.58,0,0,1,19.45,44.09ZM9.86,52.83h0l-.06,0ZM15.76,100h0Zm1,6.37h0ZM65.57,66.95a6.41,6.41,0,0,0-1.05,3.89h0a9.36,9.36,0,0,1,1.15-2.1,3.45,3.45,0,0,1-.29,2.36,6.29,6.29,0,0,1-6.5,2.64l-.36-.09a4.93,4.93,0,0,1-1.69-.77,3.89,3.89,0,0,1-1-1C54.69,70,53.72,66.28,54.44,64a2.94,2.94,0,0,1,.78-1.32,25.18,25.18,0,0,1,4.3-3.19l.63-.37,1-.56a32.61,32.61,0,0,1,6.34-3.3,9.11,9.11,0,0,0-1.28.31l-.5.14c-1.39.4-3.18.95-3.9,1.19H60.3c-4.81,0-6.45,0-7,0-.23,0-.27.06-.28.13s0,0,0,0h0c.11,1.38.22,2.42.41,5.38-1.28,3.18-.83,6.1.65,9.64h0c.15,1.22.39,2.69.69,4.33h0c.85,4.3,1.77,8.67,4,17.33a10.24,10.24,0,0,0-10.42,3.63c3.75-2.43,7.42-3.13,11.12-2.1l.11,0c5.52,2.68,8.68,10.62,1.73,11.18l-12-.11-2.28,0-.56,0h0a5.65,5.65,0,0,1-1.27-.19,1.55,1.55,0,0,1-1-.62,2.34,2.34,0,0,1-.44-1.21,10.87,10.87,0,0,1-.11-1.45h0c0-.19,0-.38,0-.58v0c0-1.33,0-3.25,0-6.12V83.74a10,10,0,0,0,1-.15,12.89,12.89,0,0,0,1.75-.44l.17-.06a22.12,22.12,0,0,0,3.22-1.36c-7.16,1.62-10.54.75-17.66-1.84a33,33,0,0,0,3.15,1.93h0c.35.19.71.37,1.1.55s.64.29,1,.42c0,4.86,0,8.63,0,11.58,0,3.81,0,6.23,0,7.81v.09a12,12,0,0,1-.15,2.25,2.05,2.05,0,0,1-.4,1,1.46,1.46,0,0,1-.87.58,6.41,6.41,0,0,1-2,.26h0c-1.68.1-4.45.12-9.15.13H19.76l-.59,0a3.54,3.54,0,0,1-2.75-1.33,2.73,2.73,0,0,1-.16-.27l0-.05-.1-.23a3.15,3.15,0,0,1-.12-.33v0a5.35,5.35,0,0,1,.34-3.42,10,10,0,0,1,3.08-4.12l.08-.07.13-.1a9.52,9.52,0,0,1,1.25-.84l.15-.09a5,5,0,0,1,.89-.37c3.71-1,7.12-.26,10.86,2.17a10.23,10.23,0,0,0-10.39-3.64h0l0-.12.14-.55c1.4-5.42,2.84-11.58,3.75-16.41h0v0l0-.2,0-.13h0c.23-1.3.47-2.92.62-4.08a15,15,0,0,0,1.44-6.76c0-.09,0-.19,0-.28a7.29,7.29,0,0,0-.55-2.24c-.25-.48-.2-.52.24-5.89,0,0,0,0,0,0a.18.18,0,0,0,0,0v0s0-.07,0-.09a3,3,0,0,0-.88-.05c-1,0-3.18,0-7.84,0l-.94-.33c-.88-.3-1.82-.59-2.79-.85l-.35-.1-1.32-.29a3.39,3.39,0,0,0-.47-.06A26.92,26.92,0,0,1,20,58.54l.77.44a25.28,25.28,0,0,1,5.31,3.84c1.34,1.41,1.11,6.55-1.27,9.5-1.89,2.35-5.28,2.26-7.43.71a4.39,4.39,0,0,1-1.91-4.29,9.36,9.36,0,0,1,1.15,2.1,6.39,6.39,0,0,0-1.05-3.89c0-.13-3.24-3.5-4.71-5.48-1-1.31-3.23-4.85-3.24-6.5a.84.84,0,0,1,.06-.29l0-.06a1.46,1.46,0,0,1,.14-.25l.06-.09.21-.24L8.16,54a7.24,7.24,0,0,1,1.44-1l.28-.14c6.85-3.51,16.46-4.4,19.23-4.6l1.15-.07h0a11.47,11.47,0,0,1,3.6-4.33,11.94,11.94,0,0,1,2.34-1.33l.48-.2-.05,0a14.64,14.64,0,0,1,2.46-.73,11.21,11.21,0,0,0-3.75.59l-.43.15A8.85,8.85,0,0,0,32.31,44l-.08.07c-.15.13-.29.27-.43.41l0,0A11.53,11.53,0,0,1,35,41l.17-.13.07-.05,0,0a9.54,9.54,0,0,1,5.28-1.63,10.71,10.71,0,0,1,9.14,5.69l0,.05a10.2,10.2,0,0,0-8.21-3.37c5.61,1.09,8.2,4.17,9.41,6.49h0l.05.1a60,60,0,0,1,17.79,3.54A21.24,21.24,0,0,1,71.57,53h0c1.23.65,1.95,1,1.94,2C73.49,59,65.65,66.72,65.57,66.95ZM54.36,57.76c2.25.09,5.3.05,5.51,0l-.41.25h0a44.47,44.47,0,0,0-4.78,3.23l-.05,0ZM27.08,61.34v0h0Zm-.32-3.59-.26,3.58a46.65,46.65,0,0,0-5.24-3.53C21.73,57.81,24.64,57.84,26.76,57.76Z" style="fill:#3c557c"/><path d="M40.43,27c12.65,0,22.91,10.42,22.91-2.23a22.91,22.91,0,0,0-45.82,0C17.52,37.37,27.78,27,40.43,27ZM40.34,2.73c12.5-.19,21.8,10.8,22.16,22.61C55.44,15.08,42.82,9,29.44,9a39.38,39.38,0,0,0-4.94.32A22,22,0,0,1,40.34,2.73Z" style="fill:#3c557c"/><path d="M45.89,54.56c.63-1.06.76-1.93.37-2.46-.81-1.11-3.64-.43-6.73,1.61-3.75.16-6.47,1.29-6.47,2.68,0,.67.63,1.29,1.79,1.78-.73,1.15-.9,2.08-.48,2.65a1.59,1.59,0,0,0,1.35.52,11.41,11.41,0,0,0,5.58-2.26c3.78-.16,6.53-1.28,6.53-2.69C47.81,55.7,47.13,55.05,45.89,54.56Zm-.6-1.91c.25.34.17.92-.2,1.64a17.09,17.09,0,0,0-4.65-.59h0C42.68,52.34,44.73,51.89,45.28,52.65ZM34.82,56.06c0-.81,1.66-1.56,3.93-1.81l0,0a17.82,17.82,0,0,0-3,2.76C35.12,56.74,34.82,56.39,34.82,56.06Zm.35,4c-.25-.34-.17-.94.22-1.68a15.79,15.79,0,0,0,4.53.71C37.7,60.37,35.7,60.79,35.17,60.06ZM40.43,58a12,12,0,0,1-4.28-.69A15.29,15.29,0,0,1,39,54.63l.65-.45.81,0a11.91,11.91,0,0,1,4.31.7,13.58,13.58,0,0,1-3,3C41.29,57.93,40.86,58,40.43,58Zm2.64-.23a15,15,0,0,0,2.38-2.5,1.13,1.13,0,0,1,.6.83C46,56.74,44.87,57.39,43.07,57.72Z" style="fill:#3c557c"/></g></g></svg>