<?xml version="1.0" encoding="utf-8"?>
<!-- Generator: Adobe Illustrator 22.1.0, SVG Export Plug-In . SVG Version: 6.00 Build 0)  -->
<svg version="1.1" id="fine-tune_line_art" xmlns="http://www.w3.org/2000/svg" xmlns:xlink="http://www.w3.org/1999/xlink" x="0px"
	 y="0px" viewBox="0 0 118 648.2" style="enable-background:new 0 0 118 648.2;" xml:space="preserve">
<style type="text/css">
	.st0{fill:#073256;}
</style>
<title>rocket-anyworkspace-color</title>
<g id="Anyworkspace">
	<g id="Stroke">
		<g>
			<path class="st0" d="M53.1,647.4h-8.6l0-0.3c0-2.6-0.2-5.2-0.8-7.8l0-0.1l0-0.1c0.4-1.7,0.9-3.5,1.5-5.1l0.1-0.2h7.2l0.1,0.2
				c0.6,1.5,1.1,3.1,1.4,4.7l0,0.1l0,0.1c-0.6,2.7-0.9,5.5-0.9,8.2L53.1,647.4z M45,646.9h7.6c0-2.7,0.3-5.4,0.9-8
				c-0.3-1.5-0.8-2.9-1.3-4.4h-6.5c-0.6,1.6-1.1,3.2-1.4,4.8C44.8,641.8,45.1,644.4,45,646.9z"/>
		</g>
		<g>
			<path class="st0" d="M72.5,647.4h-8.6l0-0.3c0-2.4-0.2-4.8-0.7-7.2l0,0l0,0c0.4-1.9,0.9-3.9,1.6-5.7l0.1-0.2h7.2l0.1,0.2
				c0.5,1.3,1,2.7,1.3,4.1l0,0.1l0,0.1c-0.7,2.9-1,5.8-1,8.7L72.5,647.4z M64.4,646.9H72c0-2.9,0.3-5.8,1-8.5
				c-0.3-1.3-0.7-2.6-1.2-3.9h-6.5c-0.7,1.8-1.2,3.6-1.5,5.4C64.2,642.2,64.4,644.6,64.4,646.9z"/>
		</g>
		<g>
			
				<rect x="58.7" y="70.1" transform="matrix(0.7776 -0.6288 0.6288 0.7776 -35.5856 54.3225)" class="st0" width="0.5" height="14.8"/>
		</g>
		<g>
			
				<rect x="51.6" y="77.2" transform="matrix(0.629 -0.7774 0.7774 0.629 -38.3327 74.5999)" class="st0" width="14.8" height="0.5"/>
		</g>
		<g>
			<path class="st0" d="M66.8,68.6H51.2l4.3-4.5l0-55.2l2.5-8.3c0.1-0.2,0.2-0.4,0.5-0.5S59,0,59.3,0c0.3,0.1,0.5,0.3,0.6,0.6
				L62.5,9v55.1L66.8,68.6z M52.4,68.1h13.2L62,64.3V9l-2.6-8.2c0-0.1-0.1-0.2-0.3-0.3c-0.1,0-0.2,0-0.3,0c-0.1,0.1-0.2,0.1-0.2,0.2
				L56.1,9v55.3L52.4,68.1z"/>
		</g>
		<g>
			<path class="st0" d="M90.9,634.5H27.1v-19L0,632.2v-10.6l28.5-26.2L29,421.2h-1.4c-0.5,0-1-0.4-1-1v-60.4l-3.5,1.3l0-13.3
				l3.5-7.4V236.8l13.2-80.5l0-42.3l18-26.9c0.5-0.7,1.4-0.9,2.1-0.4c0.2,0.1,0.3,0.2,0.4,0.4l18,26.9v42.3l13.2,80.4l0,103.6
				l3.5,7.5v13.2l-3.5-1.3v60.4c0,0.5-0.4,1-1,1H89l0.5,174.3l28.5,26.2v10.6l-0.4-0.2l-26.7-16.5V634.5z M27.6,634h62.9v-19.4
				l0.4,0.2l26.7,16.5v-9.4L89,595.7v-0.1l-0.5-174.9h2c0.3,0,0.5-0.2,0.5-0.5v-61.2l3.5,1.3V348l-3.5-7.5V236.8l-13.2-80.4l0-42.2
				L59.9,87.4c-0.1-0.1-0.2-0.2-0.3-0.3c-0.5-0.3-1.1-0.2-1.4,0.3l-17.9,26.7v42.2l-13.2,80.5l0,103.6l0,0l-3.5,7.4v12.4l3.5-1.3
				v61.1c0,0.3,0.2,0.5,0.5,0.5h1.9l0,0.3l-0.5,174.7l-0.1,0.1L0.5,621.9v9.4l27.1-16.7V634z"/>
		</g>
		<g>
			<path class="st0" d="M64.4,648.2H52.6l0-0.2c-0.1-4.7,0.6-9.4,2.2-13.8l0.1-0.2h7.2l0.1,0.2c1.6,4.4,2.4,9.1,2.2,13.8L64.4,648.2
				z M53.1,647.8h10.8c0.1-4.5-0.6-8.9-2.1-13.2h-6.5C53.8,638.8,53,643.2,53.1,647.8z"/>
		</g>
		<g>
			<path class="st0" d="M45,648.2H33.3l0-0.2c-0.1-4.7,0.6-9.4,2.2-13.8l0.1-0.2h7.2l0.1,0.2c1.6,4.4,2.4,9.1,2.2,13.8L45,648.2z
				 M33.8,647.8h10.8c0.1-4.5-0.6-8.9-2.1-13.2h-6.5C34.4,638.8,33.7,643.2,33.8,647.8z"/>
		</g>
		<g>
			<path class="st0" d="M83.8,648.2H72l0-0.2c-0.1-4.7,0.6-9.4,2.2-13.8l0.1-0.2h7.2l0.1,0.2c1.6,4.4,2.4,9.1,2.2,13.8L83.8,648.2z
				 M72.5,647.8h10.8c0.1-4.5-0.6-8.9-2.1-13.2h-6.5C73.1,638.8,72.4,643.2,72.5,647.8z"/>
		</g>
		<g>
			<path class="st0" d="M29.2,443.2h-2.7c-0.4,0-0.8-0.3-0.8-0.8v-2c0-0.5,0.2-1,0.6-1.4l2.7-2.5l0.3,0.4l-2.8,2.5
				c-0.3,0.3-0.4,0.6-0.4,1v2c0,0.1,0.1,0.3,0.3,0.3h2.7V443.2z"/>
		</g>
		<g>
			<path class="st0" d="M29.2,443.1h-2.7c-0.4,0-0.8-0.3-0.8-0.8v-2c0-0.5,0.2-1,0.6-1.4l2.7-2.5l0.3,0.4l-2.8,2.5
				c-0.3,0.3-0.5,0.6-0.4,1v2c0,0.1,0.1,0.3,0.3,0.3h2.7V443.1z M91.6,443h-2.7v-0.5h2.7c0.1,0,0.3-0.1,0.3-0.3v-2
				c0-0.4-0.2-0.8-0.4-1l-2.8-2.5l0.3-0.4l2.8,2.5c0.4,0.4,0.6,0.9,0.6,1.4v2C92.3,442.7,92,443,91.6,443z"/>
		</g>
		<g>
			<path class="st0" d="M88.7,421.2c-19.7-1.6-39.7-1.6-59.5,0l0-0.5c19.8-1.6,39.8-1.6,59.6,0L88.7,421.2z M91.1,414.9
				c-21.3-1.9-43-1.9-64.3,0l0-0.5c21.4-1.9,43-1.9,64.4,0L91.1,414.9z"/>
		</g>
		<g>
			<path class="st0" d="M27.6,615.1h-0.5V600l2.1-2.1l0.1,0c19.9-3.4,40.1-3.4,60,0l0.1,0l1.5,1.5V615h-0.5v-15.4l-1.3-1.3
				c-19.8-3.3-39.9-3.3-59.7,0l-1.9,1.9V615.1z"/>
		</g>
		<g>
			<path class="st0" d="M91.1,247.1c-21-4.9-43.2-4.9-64.2,0l-0.1-0.5c21.1-4.9,43.4-4.9,64.4,0L91.1,247.1z M91.1,245.6
				c-21-4.9-43.2-4.9-64.2,0l-0.1-0.5c21.1-4.9,43.3-4.9,64.4,0L91.1,245.6z M91.1,244.1c-21-4.9-43.2-4.9-64.2,0l-0.1-0.5
				c21.1-4.9,43.3-4.9,64.4,0L91.1,244.1z M91.1,242.7c-21-4.9-43.2-4.9-64.2,0l-0.1-0.5c21.1-4.9,43.3-4.9,64.4,0L91.1,242.7z
				 M91.1,241.2c-21-4.9-43.2-4.9-64.2,0l-0.1-0.5c21.1-4.9,43.3-4.9,64.4,0L91.1,241.2z M91,239.8c-21-4.9-43.2-4.9-64.2,0
				l-0.1-0.5c21.1-4.9,43.3-4.9,64.4,0L91,239.8z M91.1,238.4c-21-4.9-43.2-4.9-64.2,0l-0.1-0.5c21.1-4.9,43.3-4.9,64.4,0
				L91.1,238.4z M91,236.9c-21-4.9-43.2-4.9-64.2,0l-0.1-0.5c21.1-4.9,43.3-4.9,64.4,0L91,236.9z"/>
		</g>
		<g>
			<path class="st0" d="M62.2,64.5c-2.1-0.4-4.2-0.4-6.3,0L55.7,64c2.2-0.4,4.4-0.4,6.5,0L62.2,64.5z M62.1,9.2
				c-2-0.7-4.2-0.7-6.3,0l-0.2-0.5c2.1-0.7,4.5-0.7,6.6,0L62.1,9.2z"/>
		</g>
		<g>
			<path class="st0" d="M65.6,95.3h-0.5V68.4h0.5V95.3z M52.9,95.3h-0.5V68.4h0.5V95.3z M63.9,92.7h-0.5V68.4h0.5V92.7z M54.6,92.7
				h-0.5V68.4h0.5V92.7z"/>
		</g>
		<g>
			<path class="st0" d="M77.9,114.4c-12.3-3.1-25.4-3.1-37.7,0l-0.1-0.5c12.4-3.1,25.6-3.1,38,0L77.9,114.4z"/>
		</g>
		<g>
			<path class="st0" d="M77.9,156.8c-12.4-3.1-25.4-3.1-37.8,0l-0.1-0.5c12.4-3.2,25.6-3.2,38,0L77.9,156.8z"/>
		</g>
		<g>
			<path class="st0" d="M46.2,113l-0.5-0.2l7-14.7l0.5,0.2L46.2,113z M71.7,113l-6.9-14.7l0.5-0.2l6.9,14.7L71.7,113z M51.9,112.3
				l-0.5-0.1l3.9-14.5l0.5,0.1L51.9,112.3z M66.1,112.3l-3.9-14.5l0.5-0.1l3.9,14.5L66.1,112.3z M59.2,111.8h-0.5v-14h0.5V111.8z"/>
		</g>
		<g>
			<path class="st0" d="M91.1,359.7c-22.8-3.2-44.4-3.2-64.3,0l-0.1-0.5c19.9-3.2,41.6-3.2,64.4,0L91.1,359.7z M91.1,340.7
				c-21.3-3.8-42.9-3.8-64.2,0l-0.1-0.5c21.4-3.8,43-3.8,64.4,0L91.1,340.7z"/>
		</g>
		<g>
			<path class="st0" d="M91.1,278.8c-21-4.9-43.2-4.9-64.2,0l-0.1-0.5c21.1-4.9,43.4-4.9,64.4,0L91.1,278.8z M91.1,262.2
				c-21-4.9-43.2-4.9-64.2,0l-0.1-0.5c21.1-4.9,43.4-4.9,64.4,0L91.1,262.2z"/>
		</g>
		<g>
			<path class="st0" d="M67.5,98.8c-5.6-1-11.4-1-17,0l-0.1-0.5c5.7-1.1,11.5-1.1,17.2,0L67.5,98.8z"/>
		</g>
	</g>
	<g id="Fill">
		<path class="st0" d="M48.5,162.2c0-0.9,0.8-1.7,1.7-1.7s1.7,0.8,1.7,1.7c0,0.9-0.8,1.7-1.7,1.7C49.3,163.9,48.5,163.1,48.5,162.2
			L48.5,162.2z M46.7,163.2c0-0.9-0.8-1.7-1.7-1.7c-0.9,0-1.7,0.8-1.7,1.7c0,0.9,0.8,1.7,1.7,1.7C46,165,46.7,164.2,46.7,163.2
			C46.7,163.3,46.7,163.3,46.7,163.2z M49.5,166c-0.9,0-1.7,0.8-1.7,1.7c0,0.9,0.8,1.7,1.7,1.7c0.9,0,1.7-0.8,1.7-1.7
			S50.4,166,49.5,166L49.5,166z M44.3,167.1c-0.9,0-1.7,0.8-1.7,1.7c0,0.9,0.8,1.7,1.7,1.7c0.9,0,1.7-0.8,1.7-1.7
			C46,167.8,45.2,167.1,44.3,167.1C44.3,167.1,44.3,167.1,44.3,167.1L44.3,167.1z M48.7,171.5c-0.9,0-1.7,0.8-1.7,1.7
			c0,0.9,0.8,1.7,1.7,1.7c0.9,0,1.7-0.8,1.7-1.7S49.6,171.5,48.7,171.5L48.7,171.5L48.7,171.5z M43.5,172.6c-0.9,0-1.7,0.8-1.7,1.7
			c0,0.9,0.8,1.7,1.7,1.7c0.9,0,1.7-0.8,1.7-1.7S44.5,172.6,43.5,172.6L43.5,172.6L43.5,172.6z M54.3,85h2.4v-1H61v1h2.7v-1.8
			l-1.6-1.9v1.6h-6.4v-1.4l-1.3,1.7L54.3,85z M91.2,359.4L91.2,359.4l3.5,1.3v-12.8l-3.5-7.5l0,0c-21.3-3.8-43.1-3.8-64.3,0
			l-3.5,7.5v12.8l3.5-1.3C47.5,356.1,69,356.3,91.2,359.4z M91.2,278.6L91.2,278.6v-16.6l0,0c-21.2-4.9-43.2-4.9-64.3,0v16.6
			C48,273.7,70,273.7,91.2,278.6z M17.1,621.6v10.5L36.7,620v-25.3L17.1,621.6L17.1,621.6z M81.3,594.7V620l19.6,12.3v-10.6
			L81.3,594.7z M67.5,98.6L67.5,98.6L60,87.4c-0.4-0.6-1.2-0.7-1.7-0.3c-0.1,0.1-0.2,0.2-0.3,0.3l-7.5,11.2l0,0
			C56.1,97.5,61.9,97.5,67.5,98.6z M86.9,378.7h0.5v-24.8h-0.5V378.7z M85.3,378.4h0.5v-24.5h-0.5V378.4z M83.7,378.1h0.5v-24.2
			h-0.5V378.1z M82.1,377.9h0.5v-24h-0.5V377.9z M80.6,377.6h0.5v-23.7h-0.5V377.6z M79,377.4h0.6v-23.5H79L79,377.4z M77.4,377.2
			H78v-23.3h-0.5L77.4,377.2z M75.9,377.1h0.5v-23.2h-0.5V377.1z M74.3,376.9h0.5v-23h-0.5V376.9z M72.7,376.8h0.5v-22.9h-0.5V376.8
			z"/>
	</g>
</g>
</svg>
