<?xml version="1.0" encoding="utf-8"?>
<!-- Generator: Adobe Illustrator 23.0.1, SVG Export Plug-In . SVG Version: 6.00 Build 0)  -->
<svg version="1.1" id="Layer_1" xmlns="http://www.w3.org/2000/svg" xmlns:xlink="http://www.w3.org/1999/xlink" x="0px" y="0px"
	 viewBox="0 0 306.5 306.5" style="enable-background:new 0 0 306.5 306.5;" xml:space="preserve">
<style type="text/css">
	.st0{fill:none;stroke:#073256;stroke-width:10;stroke-miterlimit:10;}
	.st1{fill:none;stroke:#073256;stroke-width:10;stroke-linecap:round;stroke-miterlimit:10;}
</style>
<title>SEO</title>
<g id="bab21744-c5fe-4737-abd0-ed75dfd78b73">
	<g id="b656c9ed-8457-4acd-8a2a-fd1f18f6c70e">
		<circle class="st0" cx="126.6" cy="126.6" r="121.6"/>
		<circle class="st0" cx="126.6" cy="126.6" r="96.8"/>
		<path class="st0" d="M299.5,276.8l-76.3-76.3c-6.5,8.5-14.2,16.2-22.7,22.7l76.3,76.3c2.6,2.6,6.9,2.6,9.5,0c0,0,0,0,0,0
			l13.2-13.2C302.1,283.6,302.1,279.4,299.5,276.8C299.5,276.8,299.5,276.8,299.5,276.8z"/>
		<polyline class="st0" points="77.3,77.5 77.3,171.7 181.8,171.7 		"/>
		<path class="st1" d="M96.5,146.8l15.2-30.9c0.1-0.3,0.5-0.4,0.7-0.3c0.1,0,0.2,0.1,0.3,0.2l16.3,24.9c0.2,0.3,0.5,0.3,0.8,0.2
			c0.1-0.1,0.2-0.2,0.2-0.3L147.7,91c0.1-0.3,0.4-0.4,0.7-0.3c0.1,0,0.2,0.1,0.3,0.2l16.2,27.5"/>
	</g>
</g>
</svg>
