<?xml version="1.0" encoding="utf-8"?>
<!-- Generator: Adobe Illustrator 23.0.1, SVG Export Plug-In . SVG Version: 6.00 Build 0)  -->
<svg version="1.1" id="Layer_1" xmlns="http://www.w3.org/2000/svg" xmlns:xlink="http://www.w3.org/1999/xlink" x="0px" y="0px"
	 viewBox="0 0 372.5 260" style="enable-background:new 0 0 372.5 260;" xml:space="preserve">
<style type="text/css">
	.st0{fill:none;stroke:#073256;stroke-width:12;stroke-miterlimit:10;}
	.st1{fill:none;stroke:#073256;stroke-width:8;stroke-miterlimit:10;}
	.st2{fill:none;stroke:#073256;stroke-width:12;stroke-linecap:round;stroke-miterlimit:10;}
	.st3{fill:#073256;}
</style>
<title>Web</title>
<g id="b0e5c089-d070-4788-975e-b96e232856bc">
	<g id="e5722750-18ae-4be8-8ce0-a0dc7b6b1131">
		<path class="st0" d="M17.1,6h338.3c6.1,0,11.1,5,11.1,11.1v225.8c0,6.1-5,11.1-11.1,11.1H17.1C11,254,6,249,6,242.9V17.1
			C6,11,11,6,17.1,6z"/>
		<line class="st1" x1="6" y1="43.8" x2="366.5" y2="43.8"/>
		<line class="st2" x1="26.1" y1="26" x2="55.5" y2="26"/>
		<path class="st3" d="M189.3,78.2h-6.9h-0.1c-40.1,2.2-70.8,36.4-68.6,76.4c2,37.1,31.6,66.6,68.6,68.6h7
			c40.1-1.7,71.2-35.6,69.5-75.6C257.2,109.9,227,79.7,189.3,78.2L189.3,78.2z M237.2,107.2c-5.2,3.9-10.8,7.2-16.7,9.8
			c-5.1-12.4-13-23.5-23-32.4C213,87.3,227,95.3,237.2,107.2z M189.1,85c11.6,8.9,20.6,20.6,26.2,34.2c-8.4,3-17.3,4.6-26.2,4.8V85z
			 M189.1,129.6c9.6-0.2,19.1-1.9,28.1-5.2c2.8,8.4,4.2,17.1,4.2,25.9h-32.3V129.6z M189.1,155.9h32.2c-0.5,8.6-2.3,17-5.4,25.1
			c-8.6-2.9-17.6-4.4-26.7-4.6V155.9z M174,84.8c-9.6,8.6-17.2,19.3-22.3,31.2c-5.5-2.6-10.8-5.9-15.6-9.7
			C146,95.1,159.3,87.6,174,84.8z M132.5,110.6c5.3,4.2,11,7.7,17.1,10.6c-3.3,9.4-5,19.2-5,29.1h-25.4
			C119.3,136,123.9,122.1,132.5,110.6L132.5,110.6z M134.7,193.5c-8.9-10.6-14.2-23.7-15.2-37.5h25.4c0.5,9.6,2.6,19.1,6.2,28
			C145.3,186.6,139.8,189.8,134.7,193.5L134.7,193.5z M138.4,197.7c4.6-3.4,9.6-6.2,14.9-8.5c5,10.4,12,19.8,20.7,27.5
			C160.5,214.1,148.1,207.5,138.4,197.7L138.4,197.7z M183.4,217.1c-10.5-7.9-19.1-18.2-24.9-30c8-2.9,16.4-4.6,24.9-4.9V217.1z
			 M183.4,176.5c-9.3,0.4-18.4,2.2-27.1,5.4c-3.3-8.3-5.3-17.1-5.8-26h32.9V176.5z M183.4,150.3h-33.1c0-9.1,1.6-18.2,4.5-26.9
			c9.1,3.6,18.8,5.6,28.6,6.1V150.3z M183.4,123.9c-9.1-0.4-18.1-2.3-26.6-5.7c5.7-13.4,14.9-25.1,26.6-33.8L183.4,123.9z
			 M189.1,216.5V182c8.3,0.2,16.6,1.6,24.5,4.2C207.9,198.1,199.5,208.5,189.1,216.5L189.1,216.5z M197.5,216.8
			c9-8,16.3-17.7,21.4-28.7c5.6,2.3,11,5.2,16,8.7C224.9,207.4,211.8,214.4,197.5,216.8L197.5,216.8z M238.6,192.6
			c-5.5-3.9-11.4-7.1-17.6-9.6c3.3-8.7,5.3-17.8,5.8-27.1H253C252,169.3,247,182.1,238.6,192.6L238.6,192.6z M253.3,150.3H227
			c0-9.5-1.6-19-4.6-28c6.5-2.8,12.6-6.4,18.3-10.7C248.8,122.9,253.2,136.4,253.3,150.3L253.3,150.3z"/>
	</g>
</g>
</svg>
